<svg xmlns="http://www.w3.org/2000/svg" width="500" height="500" style="width:100%;height:100%;transform:translate3d(0,0,0);content-visibility:visible" viewBox="0 0 500 500"><defs><clipPath id="a"><path d="M0 0h500v500H0z"/></clipPath><clipPath id="c"><path d="M0 0h500v500H0z"/></clipPath><clipPath id="b"><path d="M0 0h500v500H0z"/></clipPath></defs><g clip-path="url(#a)"><g clip-path="url(#b)" style="display:block"><g class="primary design" style="display:none"><path fill="#121330" d="M192.72 270.832H98.983c-20.205 0-36.452 16.456-36.452 36.452v93.735c0 19.997 16.247 36.453 36.452 36.453h93.735c19.997 0 36.453-16.456 36.453-36.453v-93.735c0-19.996-16.456-36.452-36.453-36.452zm0-208.3H98.983c-20.205 0-36.452 16.456-36.452 36.452v93.735c0 19.997 16.247 36.453 36.452 36.453h93.735c19.997 0 36.453-16.456 36.453-36.453V98.984c0-19.996-16.456-36.452-36.453-36.452zm208.3 0h-93.736c-20.205 0-36.452 16.456-36.452 36.452v93.735c0 19.997 16.456 36.453 36.452 36.453h93.735c19.997 0 36.453-16.456 36.453-36.453V98.984c0-19.996-16.456-36.452-36.453-36.452zm15.622 270.79h-41.66v-41.66c0-11.498-9.311-20.83-20.83-20.83-11.52 0-20.83 9.332-20.83 20.83v41.66h-41.66c-11.52 0-20.83 9.332-20.83 20.83 0 11.498 9.31 20.83 20.83 20.83h41.66v41.66c0 11.498 9.31 20.83 20.83 20.83 11.519 0 20.83-9.332 20.83-20.83v-41.66h41.66c11.519 0 20.83-9.332 20.83-20.83 0-11.498-9.311-20.83-20.83-20.83z" class="primary"/></g><g class="primary design" style="display:block"><path fill="#121330" d="M192.72 270.832H98.983c-20.205 0-36.452 16.456-36.452 36.452v93.735c0 19.997 16.247 36.453 36.452 36.453h93.735c19.997 0 36.453-16.456 36.453-36.453v-93.735c0-19.996-16.456-36.452-36.453-36.452zm0-208.3H98.983c-20.205 0-36.452 16.456-36.452 36.452v93.735c0 19.997 16.247 36.453 36.452 36.453h93.735c19.997 0 36.453-16.456 36.453-36.453V98.984c0-19.996-16.456-36.452-36.453-36.452zm208.3 0h-93.736c-20.205 0-36.452 16.456-36.452 36.452v93.735c0 19.997 16.456 36.453 36.452 36.453h93.735c19.997 0 36.453-16.456 36.453-36.453V98.984c0-19.996-16.456-36.452-36.453-36.452zm15.622 270.79h-41.66v-41.66c0-11.498-9.311-20.83-20.83-20.83-11.52 0-20.83 9.332-20.83 20.83v41.66h-41.66c-11.52 0-20.83 9.332-20.83 20.83 0 11.498 9.31 20.83 20.83 20.83h41.66v41.66c0 11.498 9.31 20.83 20.83 20.83 11.519 0 20.83-9.332 20.83-20.83v-41.66h41.66c11.519 0 20.83-9.332 20.83-20.83 0-11.498-9.311-20.83-20.83-20.83z" class="primary"/></g><g class="primary design" style="display:none"><path fill="none" class="primary"/></g><g class="primary design" style="display:none"><path class="primary"/><path fill="none" class="primary"/></g><g class="primary design" style="display:none"><path class="primary"/><path fill="none" class="primary"/></g><g class="primary design" style="display:none"><path class="primary"/><path fill="none" class="primary"/></g><g class="primary design" style="display:none"><path class="primary"/><path fill="none" class="primary"/></g></g><g clip-path="url(#c)" style="display:none"><g class="primary design" style="display:none"><path class="primary"/><path class="primary"/><path class="primary"/><path class="primary"/></g><g class="primary design" style="display:none"><path class="primary"/><path fill="none" class="primary"/></g><g class="primary design" style="display:none"><path class="primary"/><path fill="none" class="primary"/></g><g class="primary design" style="display:none"><path class="primary"/><path fill="none" class="primary"/></g><g class="primary design" style="display:none"><path fill="none" class="primary"/></g></g></g></svg>